<?xml version="1.0" standalone="no"?>
<!DOCTYPE svg PUBLIC "-//W3C//DTD SVG 20010904//EN"
 "http://www.w3.org/TR/2001/REC-SVG-20010904/DTD/svg10.dtd">
<svg version="1.0" xmlns="http://www.w3.org/2000/svg"
 width="792.000000pt" height="792.000000pt" viewBox="0 0 792.000000 792.000000"
 preserveAspectRatio="xMidYMid meet">
<metadata>
Created by potrace 1.14, written by Peter Selinger 2001-2017
</metadata>
<g transform="translate(0.000000,792.000000) scale(0.100000,-0.100000)"
fill="#000000" stroke="none">
<path d="M1070 5020 c-155 -57 -261 -190 -291 -365 -10 -58 -9 -83 4 -146 42
-205 170 -330 369 -360 147 -22 293 28 393 132 218 229 161 595 -113 722 -61
28 -77 31 -187 34 -101 3 -129 0 -175 -17z m262 -46 c155 -50 252 -259 220
-476 -29 -200 -147 -307 -327 -296 -164 11 -282 123 -320 305 -71 332 138 560
427 467z"/>
<path d="M3209 5030 c-204 -51 -329 -217 -329 -436 0 -168 87 -317 227 -388
144 -72 363 -81 506 -19 l37 16 1 146 c2 188 5 203 47 216 63 18 26 29 -108
29 -97 1 -135 -3 -138 -12 -2 -8 7 -12 25 -12 16 0 38 -6 49 -14 17 -13 19
-27 19 -168 l0 -153 -30 -14 c-47 -23 -187 -19 -259 7 -121 44 -202 131 -246
262 -18 54 -21 82 -18 166 3 91 7 107 38 170 63 125 156 170 334 162 155 -7
236 -50 254 -133 14 -71 29 -51 35 51 4 54 5 99 3 102 -21 20 -383 38 -447 22z"/>
<path d="M4271 5018 c-5 -13 -66 -180 -136 -373 -169 -463 -160 -444 -224
-454 -19 -4 -36 -12 -39 -19 -3 -9 27 -12 128 -12 101 0 131 3 128 13 -3 6
-17 13 -31 15 -23 3 -27 8 -27 36 0 31 56 211 79 255 12 21 17 21 134 19 l122
-3 52 -135 c30 -77 52 -148 50 -165 l-2 -30 118 -3 c93 -2 118 0 115 10 -3 7
-18 14 -34 16 -68 8 -85 42 -269 520 -81 209 -133 332 -142 332 -7 0 -17 -10
-22 -22z m59 -311 c29 -81 51 -150 48 -153 -3 -2 -50 -3 -105 -2 l-99 3 48
154 c27 84 51 151 53 150 1 -2 26 -70 55 -152z"/>
<path d="M4977 5033 c-4 -3 -7 -183 -7 -399 0 -224 -4 -403 -9 -418 -7 -18
-19 -26 -42 -28 -18 -2 -34 -9 -37 -16 -3 -10 25 -12 132 -10 82 2 136 7 136
13 1 6 -16 12 -37 15 -28 4 -41 12 -50 30 -8 17 -15 128 -21 325 -5 165 -8
301 -7 302 0 1 67 -71 147 -160 235 -261 515 -544 527 -532 7 7 11 152 13 418
3 440 1 426 56 427 13 0 22 6 22 15 0 13 -21 15 -130 15 -109 0 -130 -2 -130
-15 0 -10 10 -15 34 -15 19 0 41 -7 49 -15 18 -17 25 -116 31 -440 l4 -219
-31 34 c-102 117 -629 680 -636 680 -4 0 -11 -3 -14 -7z"/>
<path d="M6987 5029 c-231 -54 -374 -304 -312 -542 30 -116 84 -195 176 -256
106 -71 260 -101 419 -82 143 18 153 27 166 158 6 54 4 65 -7 61 -7 -2 -18
-21 -22 -41 -12 -51 -55 -93 -108 -107 -26 -7 -83 -10 -139 -8 -79 3 -105 9
-155 33 -164 79 -251 252 -226 452 17 134 72 217 176 265 43 20 66 23 170 23
109 0 125 -2 177 -27 63 -29 89 -62 98 -121 3 -22 10 -42 16 -44 8 -3 14 32
18 103 4 58 6 108 3 110 -2 2 -41 11 -88 19 -91 16 -301 18 -362 4z"/>
<path d="M1928 5024 c-13 -12 2 -24 32 -24 61 0 60 4 59 -388 -1 -196 -4 -370
-8 -387 -5 -23 -13 -31 -35 -35 -16 -3 -31 -11 -34 -17 -3 -10 30 -13 143 -13
113 0 146 3 143 13 -3 6 -21 13 -41 15 -19 2 -41 9 -47 17 -12 15 -27 281 -18
307 4 10 23 12 81 8 l75 -5 109 -145 c64 -85 126 -157 151 -174 40 -28 50 -31
149 -34 86 -4 105 -2 101 9 -3 8 -26 17 -51 21 -84 12 -126 49 -299 268 l-75
96 42 47 c107 118 123 251 41 345 -59 67 -96 76 -316 80 -107 2 -198 0 -202
-4z m349 -55 c74 -28 112 -99 113 -208 0 -145 -51 -198 -181 -189 -36 3 -71 8
-78 12 -12 8 -17 377 -4 389 10 11 119 8 150 -4z"/>
<path d="M6112 5018 c3 -7 16 -14 31 -16 52 -6 52 -7 52 -401 -1 -395 -2 -407
-52 -413 -16 -2 -28 -7 -28 -13 0 -6 58 -11 148 -13 117 -2 148 0 145 10 -3 7
-21 14 -41 16 -63 5 -62 -4 -62 414 0 409 -2 397 53 398 13 0 22 6 22 15 0 13
-22 15 -136 15 -104 0 -135 -3 -132 -12z"/>
<path d="M3678 3841 c-165 -53 -279 -187 -308 -362 -24 -139 26 -296 124 -394
192 -192 540 -157 690 70 96 144 110 340 35 487 -29 56 -114 139 -172 167
-111 54 -260 66 -369 32z m242 -50 c132 -50 210 -169 226 -345 13 -140 -26
-272 -99 -344 -142 -139 -383 -104 -494 72 -82 129 -95 344 -28 476 31 61 105
126 164 144 68 21 171 20 231 -3z"/>
<path d="M4830 3841 c-76 -24 -115 -46 -166 -93 -148 -137 -189 -357 -100
-544 156 -329 639 -325 805 7 40 80 55 157 48 256 -11 185 -132 330 -313 377
-81 21 -204 20 -274 -3z m268 -60 c98 -50 167 -147 193 -269 27 -130 -3 -303
-67 -387 -61 -81 -180 -124 -286 -105 -166 30 -273 155 -299 347 -24 183 37
345 155 405 66 34 86 38 176 35 64 -3 96 -9 128 -26z"/>
<path d="M5819 3858 c-1 -2 -23 -189 -49 -417 -50 -445 -49 -441 -107 -441
-13 0 -23 -4 -23 -10 0 -6 48 -10 125 -10 122 0 162 11 89 24 -19 4 -38 14
-41 23 -3 9 4 144 18 300 l23 285 25 -54 c124 -266 283 -578 294 -578 8 0 47
70 92 168 44 92 112 236 151 320 l72 152 6 -47 c18 -140 47 -513 43 -545 -6
-45 1 -48 141 -48 109 0 132 11 55 26 -79 15 -78 12 -123 424 -46 422 -47 430
-63 430 -7 0 -43 -66 -81 -148 -38 -81 -114 -243 -170 -361 l-100 -214 -177
361 c-150 306 -191 379 -200 360z"/>
<path d="M7165 3845 c-129 -50 -173 -203 -94 -327 18 -27 75 -87 128 -132 116
-100 126 -111 146 -159 54 -129 -52 -241 -195 -207 -61 15 -104 59 -114 119
-9 57 -23 51 -31 -11 -12 -95 -5 -121 39 -142 21 -10 69 -21 106 -24 162 -11
280 75 297 218 13 108 -35 187 -186 309 -55 44 -108 93 -119 108 -42 60 -36
136 14 184 22 21 35 24 99 24 91 0 125 -20 139 -84 15 -63 31 -44 34 41 3 91
6 89 -128 94 -69 3 -106 0 -135 -11z"/>
<path d="M2645 3841 c-12 -11 -2 -19 34 -25 22 -3 41 -13 45 -22 3 -8 6 -182
6 -385 0 -356 -1 -370 -20 -389 -11 -11 -29 -20 -41 -20 -11 0 -18 -4 -15 -8
6 -10 451 -25 483 -16 24 7 39 45 45 118 4 53 -16 57 -31 6 -18 -60 -50 -73
-172 -68 -57 2 -103 8 -110 15 -23 23 -28 102 -29 416 0 304 1 318 20 337 11
11 32 20 46 20 15 0 24 5 22 12 -3 8 -47 12 -141 13 -76 0 -140 -1 -142 -4z"/>
<path d="M2982 2520 c-98 -22 -128 -143 -52 -215 24 -23 41 -29 87 -32 32 -2
63 0 70 4 16 12 28 63 14 63 -6 0 -11 -7 -11 -15 0 -21 -43 -36 -80 -29 -64
13 -102 87 -79 152 14 39 35 52 88 52 38 0 71 -19 71 -41 0 -6 4 -8 9 -5 12 8
10 57 -3 61 -30 9 -84 11 -114 5z"/>
<path d="M6942 2520 c-73 -17 -114 -93 -90 -164 22 -65 89 -97 172 -82 35 7
36 8 36 54 0 27 5 53 12 60 9 9 2 12 -32 12 -40 -1 -43 -2 -27 -14 10 -8 17
-27 17 -49 0 -30 -4 -38 -24 -43 -35 -8 -92 20 -110 55 -24 46 -20 97 9 126
32 32 106 35 132 6 21 -25 32 -19 25 14 -3 20 -10 25 -32 25 -16 0 -34 2 -42
4 -7 2 -28 0 -46 -4z"/>
<path d="M7343 2520 c-55 -22 -51 -84 8 -131 29 -23 39 -38 39 -59 0 -47 -51
-55 -75 -12 l-15 27 2 -35 c3 -32 6 -35 39 -38 42 -4 75 20 85 60 5 23 -2 35
-45 81 -35 37 -49 60 -45 71 8 21 64 22 64 1 0 -8 5 -15 10 -15 6 0 10 11 10
25 0 15 -6 25 -14 25 -8 0 -20 2 -28 4 -7 3 -23 1 -35 -4z"/>
<path d="M890 2510 c0 -5 5 -10 10 -10 6 0 10 -42 10 -105 0 -67 -4 -105 -11
-105 -5 0 -7 -4 -4 -10 3 -5 22 -10 41 -10 19 0 34 5 34 10 0 6 -4 10 -10 10
-5 0 -10 25 -10 55 l0 55 61 0 61 0 -4 -65 -4 -65 32 0 c18 0 36 5 39 10 3 6
-1 10 -9 10 -14 0 -16 17 -16 105 0 63 4 105 10 105 6 0 10 5 10 10 0 6 -18
10 -40 10 -22 0 -40 -4 -40 -10 0 -5 5 -10 10 -10 6 0 10 -18 10 -40 l0 -40
-60 0 -60 0 0 38 c0 21 5 43 12 50 9 9 3 12 -30 12 -23 0 -42 -4 -42 -10z"/>
<path d="M1392 2499 c-59 -159 -77 -202 -89 -206 -25 -10 -13 -23 23 -23 30 0
34 3 29 19 -3 10 -1 30 4 45 9 21 17 26 45 26 31 0 35 -3 47 -45 13 -42 15
-45 49 -45 32 1 33 2 17 14 -10 8 -37 61 -59 118 -46 119 -54 130 -66 97z m21
-80 c6 -21 3 -28 -13 -32 -23 -6 -24 0 -10 39 12 30 15 30 23 -7z"/>
<path d="M1700 2406 c0 -71 -4 -116 -10 -116 -5 0 -10 -4 -10 -10 0 -5 16 -10
35 -10 19 0 35 5 35 10 0 6 -4 10 -9 10 -5 0 -11 36 -13 80 -2 44 -3 80 -2 80
1 0 42 -42 92 -92 l92 -93 0 118 c0 71 4 117 10 117 6 0 10 5 10 10 0 6 -16
10 -35 10 -32 0 -48 -14 -25 -22 6 -2 13 -41 17 -87 l6 -85 -87 95 c-48 52
-91 96 -97 97 -5 2 -9 -44 -9 -112z"/>
<path d="M2093 2505 c17 -12 18 -25 15 -107 -3 -51 -8 -100 -12 -110 -7 -14 1
-16 73 -15 74 2 82 4 111 32 43 41 56 91 37 138 -24 57 -67 77 -162 77 -71 -1
-78 -2 -62 -15z m164 -39 c29 -34 38 -69 27 -109 -12 -41 -69 -72 -114 -62
l-30 7 0 100 0 101 47 -6 c35 -4 53 -12 70 -31z"/>
<path d="M3283 2506 c14 -11 17 -29 17 -109 0 -53 -4 -99 -10 -102 -21 -13 -9
-25 24 -25 37 0 56 14 31 24 -9 3 -15 19 -15 41 0 30 3 35 23 35 15 0 29 -9
38 -26 20 -37 67 -74 95 -74 13 0 24 5 24 10 0 6 -6 10 -14 10 -7 0 -32 20
-55 45 l-41 45 20 32 c26 43 25 54 -5 83 -21 21 -33 25 -87 25 -55 -1 -61 -2
-45 -14z m101 -22 c31 -31 6 -104 -31 -90 -8 3 -17 6 -19 6 -2 0 -4 23 -4 50
0 43 3 50 19 50 11 0 27 -7 35 -16z"/>
<path d="M3772 2499 c-61 -169 -78 -209 -89 -209 -7 0 -13 -4 -13 -10 0 -5 16
-10 36 -10 30 0 34 3 29 19 -3 10 -1 30 4 45 9 21 17 26 46 26 33 0 36 -2 47
-45 11 -42 15 -45 45 -45 18 0 33 5 33 10 0 6 -6 10 -14 10 -9 0 -30 40 -56
108 -47 123 -56 135 -68 101z m27 -96 c1 -7 -8 -13 -19 -13 -23 0 -23 0 -9 37
10 26 12 27 19 8 5 -11 9 -26 9 -32z"/>
<path d="M4120 2510 c0 -5 5 -10 10 -10 6 0 10 -42 10 -105 0 -63 -4 -105 -10
-105 -5 0 -10 -4 -10 -10 0 -5 18 -10 40 -10 22 0 40 5 40 10 0 6 -4 10 -10
10 -5 0 -10 23 -10 50 0 47 2 50 25 50 14 0 25 -4 25 -10 0 -5 5 -10 10 -10 6
0 10 11 10 25 0 22 -3 24 -35 20 -35 -5 -35 -5 -35 35 0 38 2 40 30 40 17 0
30 -5 30 -11 0 -5 5 -7 10 -4 6 3 10 15 10 26 0 17 -7 19 -70 19 -40 0 -70 -4
-70 -10z"/>
<path d="M4486 2504 c-10 -27 -7 -39 6 -26 7 7 27 12 45 12 l33 0 0 -94 c0
-53 -4 -98 -10 -101 -22 -13 -8 -25 30 -25 38 0 54 14 28 22 -9 3 -14 35 -16
101 l-4 97 36 0 c20 0 36 -4 36 -10 0 -5 5 -10 10 -10 6 0 10 11 10 25 0 25 0
25 -99 25 -81 0 -100 -3 -105 -16z"/>
<path d="M4910 2510 c0 -5 5 -10 11 -10 7 0 10 -37 7 -115 l-3 -116 60 3 c56
3 60 5 63 28 3 20 1 23 -9 13 -7 -7 -26 -13 -41 -13 -27 0 -28 2 -28 45 0 40
2 45 23 45 13 0 28 -5 35 -12 9 -9 12 -6 12 15 0 24 -4 27 -35 27 -34 0 -35 1
-35 40 0 33 3 40 19 40 11 0 26 -7 34 -15 17 -16 27 -10 27 17 0 16 -9 18 -70
18 -40 0 -70 -4 -70 -10z"/>
<path d="M5260 2510 c0 -5 5 -10 10 -10 6 0 10 -42 10 -105 0 -63 -4 -105 -10
-105 -5 0 -10 -4 -10 -8 0 -15 129 -13 165 2 93 39 100 184 10 222 -39 16
-175 19 -175 4z m149 -24 c51 -27 68 -112 31 -158 -21 -27 -63 -40 -99 -31
-20 5 -21 11 -21 104 l0 99 30 0 c17 0 43 -6 59 -14z"/>
<path d="M6050 2510 c0 -5 5 -10 11 -10 7 0 10 -37 7 -115 l-3 -115 32 0 c17
0 35 5 38 10 3 6 -1 10 -9 10 -12 0 -16 10 -16 40 0 55 22 53 80 -10 33 -36
54 -50 73 -50 33 0 36 16 4 24 -13 3 -38 24 -56 46 -31 39 -32 42 -17 65 23
35 20 81 -6 99 -25 18 -138 22 -138 6z m116 -35 c28 -42 1 -95 -41 -79 -11 4
-15 21 -15 55 0 42 3 49 20 49 11 0 27 -11 36 -25z"/>
<path d="M6458 2508 c7 -7 12 -40 12 -79 0 -84 15 -126 51 -144 41 -22 73 -18
108 10 31 27 36 46 44 168 l4 57 -36 0 c-33 -1 -35 -2 -17 -15 16 -12 18 -25
15 -94 -4 -84 -13 -103 -56 -116 -17 -4 -29 1 -48 19 -22 23 -25 33 -25 104 0
47 5 83 12 90 9 9 2 12 -32 12 -34 0 -41 -3 -32 -12z"/>
<path d="M2577 2423 c-15 -14 -7 -62 12 -68 30 -9 51 5 51 35 0 33 -42 55 -63
33z"/>
<path d="M5753 2423 c-21 -8 -16 -61 6 -68 30 -9 51 5 51 35 0 33 -24 47 -57
33z"/>
</g>
</svg>
